<?xml version="1.0" encoding="UTF-8"?>
<svg width="1024" height="1024" viewBox="0 0 1024 1024" xmlns="http://www.w3.org/2000/svg">
  <defs>
    <!-- Gradient for the background -->
    <linearGradient id="bgGradient" x1="0%" y1="0%" x2="100%" y2="100%">
      <stop offset="0%" style="stop-color:#007AFF;stop-opacity:1" />
      <stop offset="50%" style="stop-color:#5856D6;stop-opacity:1" />
      <stop offset="100%" style="stop-color:#AF52DE;stop-opacity:1" />
    </linearGradient>
    
    <!-- Gradient for the progress ring -->
    <linearGradient id="progressGradient" x1="0%" y1="0%" x2="100%" y2="100%">
      <stop offset="0%" style="stop-color:#FF6B35;stop-opacity:1" />
      <stop offset="100%" style="stop-color:#34C759;stop-opacity:1" />
    </linearGradient>
  </defs>
  
  <!-- Background Rectangle (Full App Icon Area - NO SHADOW) -->
  <rect x="0" y="0" width="1024" height="1024" fill="url(#bgGradient)"/>
  
  <!-- Progress ring background track -->
  <circle cx="512" cy="512" r="280" 
          fill="none" 
          stroke="rgba(255,255,255,0.15)" 
          stroke-width="24" 
          stroke-linecap="round"/>
  
  <!-- Progress ring (75% complete) -->
  <circle cx="512" cy="512" r="280" 
          fill="none" 
          stroke="url(#progressGradient)" 
          stroke-width="24" 
          stroke-linecap="round"
          stroke-dasharray="1319 1758"
          stroke-dashoffset="330"
          transform="rotate(-90 512 512)"/>
  
  <!-- Central Content Pattern (3x bigger) -->
  <g transform="translate(512, 512) scale(3)">
    <!-- Waveform visualization bars -->
    <g opacity="0.95">
      <!-- Center tall bar -->
      <rect x="-8" y="-50" width="16" height="100" fill="#FFFFFF"/>
      
      <!-- Left side bars -->
      <rect x="-35" y="-30" width="12" height="60" fill="rgba(255,255,255,0.85)"/>
      <rect x="-60" y="-18" width="10" height="36" fill="rgba(255,255,255,0.7)"/>
      <rect x="-80" y="-35" width="8" height="70" fill="rgba(255,255,255,0.55)"/>
      
      <!-- Right side bars -->
      <rect x="23" y="-35" width="12" height="70" fill="rgba(255,255,255,0.85)"/>
      <rect x="50" y="-22" width="10" height="44" fill="rgba(255,255,255,0.7)"/>
      <rect x="70" y="-12" width="8" height="24" fill="rgba(255,255,255,0.55)"/>
    </g>
    
    <!-- Play button overlay -->
    <g transform="translate(0, 0)">
      <!-- Play triangle -->
      <path d="M -15 -18 L -15 18 L 18 0 Z" 
            fill="rgba(255,255,255,0.95)" 
            stroke="rgba(255,255,255,0.3)" 
            stroke-width="1.5"/>
    </g>
  </g>
  
  <!-- Corner accent elements -->
  <g opacity="0.6">
    <!-- Top-right accent -->
    <circle cx="900" cy="124" r="4" fill="#34C759"/>
    <!-- Bottom-left accent -->
    <circle cx="124" cy="900" r="4" fill="#FF6B35"/>
    <!-- Top-left subtle dot -->
    <circle cx="124" cy="124" r="3" fill="rgba(255,255,255,0.4)"/>
    <!-- Bottom-right subtle dot -->
    <circle cx="900" cy="900" r="3" fill="rgba(255,255,255,0.4)"/>
  </g>
  
  <!-- Edge accent elements that extend to the very edges -->
  <g opacity="0.4">
    <!-- Top edge accent -->
    <rect x="0" y="0" width="1024" height="8" fill="rgba(255,255,255,0.2)"/>
    <!-- Bottom edge accent -->
    <rect x="0" y="1016" width="1024" height="8" fill="rgba(255,255,255,0.2)"/>
    <!-- Left edge accent -->
    <rect x="0" y="0" width="8" height="1024" fill="rgba(255,255,255,0.2)"/>
    <!-- Right edge accent -->
    <rect x="1016" y="0" width="8" height="1024" fill="rgba(255,255,255,0.2)"/>
  </g>
  
  <!-- Edge elements that truly extend to the very edges -->
  <g opacity="0.2">
    <!-- Top edge -->
    <rect x="0" y="0" width="1024" height="2" fill="rgba(255,255,255,0.3)"/>
    <!-- Bottom edge -->
    <rect x="0" y="1022" width="1024" height="2" fill="rgba(255,255,255,0.3)"/>
    <!-- Left edge -->
    <rect x="0" y="0" width="2" height="1024" fill="rgba(255,255,255,0.3)"/>
    <!-- Right edge -->
    <rect x="1022" y="0" width="2" height="1024" fill="rgba(255,255,255,0.3)"/>
  </g>
  
  <!-- Corner elements that touch the very edges -->
  <g opacity="0.4">
    <!-- Top-left corner -->
    <rect x="0" y="0" width="4" height="4" fill="rgba(255,255,255,0.2)"/>
    <!-- Top-right corner -->
    <rect x="1020" y="0" width="4" height="4" fill="rgba(255,255,255,0.2)"/>
    <!-- Bottom-left corner -->
    <rect x="0" y="1020" width="4" height="4" fill="rgba(255,255,255,0.2)"/>
    <!-- Bottom-right corner -->
    <rect x="1020" y="1020" width="4" height="4" fill="rgba(255,255,255,0.2)"/>
  </g>
  

</svg>